HIERARCHY
ROOT ROOT
{
	OFFSET 0.000000 56.020000 -5.659234
	CHANNELS 6 Xposition Yposition Zposition Xrotation Yrotation Zrotation 
	JOINT C_spine0001_bind_JNT
	{
		OFFSET 0.000000 1.618999 0.000000
		CHANNELS 3 Xrotation Yrotation Zrotation
		JOINT C_spine0002_bind_JNT
		{
			OFFSET 0.000000 4.942001 0.000001
			CHANNELS 3 Xrotation Yrotation Zrotation
			JOINT C_spine0003_bind_JNT
			{
				OFFSET 0.000000 4.942001 -0.000000
				CHANNELS 3 Xrotation Yrotation Zrotation
				JOINT C_neck0001_bind_JNT
				{
					OFFSET 0.000000 17.026009 -0.000000
					CHANNELS 3 Xrotation Yrotation Zrotation
					JOINT C_neck0002_bind_JNT
					{
						OFFSET 0.000000 3.249985 0.000000
						CHANNELS 3 Xrotation Yrotation Zrotation
						JOINT C_head_bind_JNT
						{
							OFFSET 0.000000 5.278008 0.000000
							CHANNELS 3 Xrotation Yrotation Zrotation
							End Site
							{
								OFFSET 0.000000 0.000000 0.000000
							}
						}
					}
				}
				JOINT L_clavicle_bind_JNT
				{
					OFFSET 4.590000 12.067001 0.834000
					CHANNELS 3 Xrotation Yrotation Zrotation
					JOINT L_armUpper0001_bind_JNT
					{
						OFFSET 7.812635 0.512001 -3.452945
						CHANNELS 3 Xrotation Yrotation Zrotation
						JOINT L_armLower0001_bind_JNT
						{
							OFFSET 15.265892 -6.552116 -0.058157
							CHANNELS 3 Xrotation Yrotation Zrotation
							JOINT L_hand0001_bind_JNT
							{
								OFFSET 14.747667 -6.369995 5.049225
								CHANNELS 3 Xrotation Yrotation Zrotation
								End Site
								{
									OFFSET 0.000000 0.000000 0.000000
								}
							}
						}
					}
				}
				JOINT R_clavicle_bind_JNT
				{
					OFFSET -4.590000 12.067001 0.834000
					CHANNELS 3 Xrotation Yrotation Zrotation
					JOINT R_armUpper0001_bind_JNT
					{
						OFFSET -7.812635 0.512001 -3.452945
						CHANNELS 3 Xrotation Yrotation Zrotation
						JOINT R_armLower0001_bind_JNT
						{
							OFFSET -15.265890 -6.552124 -0.058160
							CHANNELS 3 Xrotation Yrotation Zrotation
							JOINT R_hand0001_bind_JNT
							{
								OFFSET -14.746784 -6.369629 5.048937
								CHANNELS 3 Xrotation Yrotation Zrotation
								End Site
								{
									OFFSET 0.000000 0.000000 0.000000
								}
							}
						}
					}
				}
			}
		}
	}
	JOINT C_pelvis0001_bind_JNT
	{
		OFFSET -0.000000 0.000000 0.000000
		CHANNELS 3 Xrotation Yrotation Zrotation
		JOINT L_legUpper0001_bind_JNT
		{
			OFFSET 6.599999 -6.027000 0.539000
			CHANNELS 3 Xrotation Yrotation Zrotation
			JOINT L_legLower0001_bind_JNT
			{
				OFFSET -0.140713 -19.187443 0.040261
				CHANNELS 3 Xrotation Yrotation Zrotation
				JOINT L_foot0001_bind_JNT
				{
					OFFSET -0.132215 -18.028637 -1.138370
					CHANNELS 3 Xrotation Yrotation Zrotation
					JOINT L_foot0002_bind_JNT
					{
						OFFSET 0.007014 -4.693133 9.886524
						CHANNELS 3 Xrotation Yrotation Zrotation
						End Site
						{
							OFFSET 0.000000 0.000000 0.000000
						}
					}
				}
			}
		}
		JOINT R_legUpper0001_bind_JNT
		{
			OFFSET -6.599999 -6.027000 0.539000
			CHANNELS 3 Xrotation Yrotation Zrotation
			JOINT R_legLower0001_bind_JNT
			{
				OFFSET 0.140710 -19.187164 0.040550
				CHANNELS 3 Xrotation Yrotation Zrotation
				JOINT R_foot0001_bind_JNT
				{
					OFFSET 0.132215 -18.028633 -1.138362
					CHANNELS 3 Xrotation Yrotation Zrotation
					JOINT R_foot0002_bind_JNT
					{
						OFFSET -0.007014 -4.693128 9.886505
						CHANNELS 3 Xrotation Yrotation Zrotation
						End Site
						{
							OFFSET 0.000000 0.000000 0.000000
						}
					}
				}
			}
		}
	}
}
MOTION
Frames: 6
Frame Time: 0.033333
0.000000 47.842793 0.000000 -0.000407 -4.447574 -0.023755 1.945105 6.567832 -1.756248 -1.032179 -2.267515 0.211661 -0.602610 -2.283167 0.718748 -2.660057 0.141746 -0.649326 1.813748 4.767729 0.185467 10.075542 0.369606 1.503698 -4.531006 10.955018 -4.005053 8.131632 16.668682 -64.320816 12.575554 13.859067 0.797566 -26.810993 -38.539059 -44.521297 -2.655515 -10.111507 3.404496 5.713988 -7.749048 62.176670 23.263802 -5.396874 -0.873797 -6.179564 36.881130 27.011196 1.836794 6.521689 -2.278660 10.623236 -2.894201 -7.140718 -2.081739 4.204160 0.457894 -6.996158 -7.583500 3.086889 -2.399907 -0.219490 0.396671 3.085402 -0.000702 11.547406 -1.532817 -10.194170 -0.123433 -3.213743 -6.519474 -4.872828 -1.838607 -0.404632 -0.414079 
0.041525 47.964256 0.029400 0.003364 -4.112381 -0.005657 1.820031 5.932484 -1.962313 -1.159572 -2.377494 0.599628 -0.364131 -2.184155 0.003202 -3.569937 0.392626 -0.509519 2.036667 3.875572 0.672268 10.664197 1.151711 1.474034 -4.803014 10.605823 -3.718107 8.189202 17.437620 -63.601120 13.617438 13.066162 0.924801 -29.588688 -38.229843 -46.666721 -3.064050 -9.820117 3.871109 6.257288 -8.530063 61.750889 24.238012 -5.686346 -1.898937 -7.765903 38.023243 28.322800 1.440275 5.305178 -1.737876 10.915432 -2.029031 -8.290207 -1.803537 6.867082 0.339408 -7.241263 -9.339670 2.610695 -2.432389 -0.472783 0.509615 3.924797 0.371744 11.268842 -1.871114 -10.005080 -0.464371 -3.241863 -6.099576 -5.345055 -2.010099 0.006548 -0.061937 
0.070369 47.913219 0.082094 -0.003439 -3.629153 0.003421 2.014379 5.460401 -1.829513 -1.376496 -2.368280 0.366551 -0.311939 -2.089546 -0.162485 -3.728540 0.364440 -0.412596 2.241660 3.855602 0.830042 10.982427 1.001516 1.622769 -4.818587 10.727859 -4.003072 7.726598 17.485842 -63.170273 13.540924 13.337288 0.980553 -29.671194 -37.973656 -46.857346 -2.872034 -10.150770 4.365204 5.893196 -8.577587 61.313042 24.326885 -6.231290 -1.692196 -7.483108 37.861572 28.155502 1.496876 4.865694 -1.654706 11.112234 -2.283769 -8.714299 -1.636074 7.277983 0.148112 -7.266120 -9.371186 3.256192 -2.711995 -0.684244 0.420559 3.519499 0.302794 11.590946 -1.558733 -9.479169 -0.409560 -3.298260 -6.409944 -5.796453 -2.070476 0.009182 -0.191711 
0.122769 47.912861 0.131487 0.005686 -3.751197 -0.016605 2.021232 5.547155 -1.878791 -1.352868 -2.231736 0.347431 -0.393956 -2.079095 0.034985 -3.748212 0.368453 -0.536399 2.283741 3.881024 0.825882 11.161283 0.993066 1.709651 -4.540886 10.829084 -4.172986 7.392468 17.042994 -63.139584 13.535633 13.351230 0.845504 -30.006067 -37.902554 -46.840302 -2.917487 -10.211191 4.318845 5.879917 -8.722441 61.064976 24.665916 -6.177187 -1.585617 -7.698731 37.851528 28.184078 1.511553 5.097911 -1.690861 11.303699 -2.444807 -8.652467 -1.716788 7.216393 0.001310 -7.381662 -9.174734 3.415652 -2.834972 -0.754199 0.418554 3.245821 0.379486 11.587029 -1.458962 -9.480168 -0.425669 -3.243891 -6.600635 -5.828710 -1.997096 0.227871 -0.200400 
0.184056 47.895569 0.176918 0.003024 -3.760290 -0.001635 1.877876 5.610619 -1.803179 -1.360616 -2.307478 0.300206 -0.321516 -2.113271 -0.101107 -3.573665 0.412512 -0.433514 2.252841 4.045278 0.925462 11.130606 1.033529 1.430767 -4.530372 10.861625 -4.032152 7.237095 16.810606 -63.197121 13.635932 13.286382 0.703286 -30.237095 -37.929237 -47.093479 -2.790699 -10.120925 4.430162 5.742606 -8.714854 60.896782 24.856544 -6.416108 -1.310176 -7.611006 38.011177 27.686176 1.367190 5.099676 -1.597965 11.690714 -2.474198 -8.936474 -1.765773 7.174694 0.014697 -7.403725 -9.223655 3.611976 -2.885667 -0.654799 0.343382 3.164781 0.239537 11.456612 -1.140374 -9.308610 -0.380719 -3.255793 -6.867149 -5.791430 -2.010071 0.099343 -0.169942 
0.232740 47.889481 0.226221 0.003189 -3.819829 -0.005230 1.854748 5.744370 -1.855813 -1.290871 -2.407076 0.325231 -0.403065 -2.225940 0.068697 -3.521245 0.360741 -0.459613 2.203300 4.210567 0.830595 11.128135 0.958167 1.356866 -4.424699 10.870513 -4.062962 7.017162 16.404303 -63.295162 13.775455 13.243478 0.539486 -30.222216 -38.108067 -47.127037 -2.777151 -10.160051 4.316246 5.913199 -8.856765 60.826820 24.938379 -6.384386 -1.602149 -7.916902 37.983696 27.949169 1.274908 5.265396 -1.659416 11.903339 -2.517588 -8.997531 -1.744187 6.938060 0.116466 -7.557132 -9.116303 3.578898 -2.938149 -0.615224 0.334632 3.121042 0.256464 11.466155 -0.821743 -9.350660 -0.218603 -3.511941 -7.009472 -5.870667 -1.948401 0.145824 -0.176107 
